<svg xmlns="http://www.w3.org/2000/svg" width="1117" height="938" viewBox="0 0 1117 938">
<g>
<path d="M 967.73 822.86 C964.01,825.14 960.86,826.96 960.73,826.92 C960.60,826.87 955.55,823.56 949.50,819.56 C936.99,811.29 917.00,800.27 903.00,793.94 C897.78,791.57 893.12,789.32 892.65,788.92 C892.19,788.53 894.04,785.35 896.78,781.85 C899.51,778.36 904.68,771.00 908.25,765.50 C934.17,725.65 948.29,684.15 951.55,638.25 L 952.21 629.00 L 1107.17 629.00 L 1106.50 636.75 C1104.69,657.71 1098.03,681.03 1087.99,701.50 C1076.15,725.63 1060.74,746.19 1037.37,769.03 C1016.30,789.62 994.44,806.52 967.73,822.86 ZM 167.22 819.62 C161.01,823.68 155.84,826.98 155.72,826.95 C155.60,826.92 154.60,826.31 153.50,825.59 C152.40,824.88 146.10,820.80 139.50,816.53 C113.66,799.81 98.31,787.46 77.41,766.58 C61.15,750.33 57.76,746.43 46.79,731.30 C26.17,702.88 13.82,670.37 10.49,635.75 L 9.84 629.00 L 164.79 629.00 L 165.45 638.25 C167.64,669.06 175.27,699.82 187.40,726.76 C195.57,744.90 208.92,767.28 220.24,781.83 C222.95,785.32 224.99,788.35 224.77,788.57 C224.55,788.79 219.22,791.39 212.93,794.36 C196.56,802.09 180.22,811.12 167.22,819.62 ZM 1106.50 612.25 L 1107.16 619.00 L 952.18 619.00 L 951.53 610.25 C950.36,594.53 947.99,578.73 944.88,566.00 C936.84,533.09 920.03,497.78 898.72,469.05 C894.86,463.85 892.15,459.45 892.69,459.27 C893.22,459.09 900.42,455.64 908.67,451.60 C925.31,443.45 941.75,434.21 952.70,426.84 C956.67,424.18 960.46,422.00 961.13,422.00 C961.79,422.00 967.10,425.02 972.92,428.71 C1017.76,457.17 1050.84,487.93 1073.99,522.71 C1093.39,551.86 1103.23,578.97 1106.50,612.25 ZM 165.47 610.25 L 164.82 619.00 L 9.90 619.00 L 10.51 612.75 C11.66,600.94 13.08,592.48 15.53,582.72 C28.90,529.61 69.77,478.45 132.50,436.33 C144.25,428.44 154.80,422.00 155.97,422.00 C156.49,422.00 161.32,424.85 166.70,428.33 C179.49,436.59 193.64,444.46 210.15,452.50 C217.49,456.07 223.90,459.13 224.40,459.30 C224.89,459.46 222.16,463.85 218.32,469.05 C186.30,512.48 169.37,557.70 165.47,610.25 ZM 246.08 780.17 C240.91,782.28 236.14,784.00 235.50,784.00 C234.01,784.00 222.57,768.71 214.73,756.23 C191.34,719.02 178.57,680.50 175.46,637.75 L 174.82 629.00 L 372.00 629.00 L 372.00 686.43 C372.00,740.27 371.89,743.90 370.25,744.38 C369.29,744.66 361.30,746.48 352.50,748.42 C314.86,756.72 273.09,769.18 246.08,780.17 ZM 889.45 774.92 C885.61,780.06 881.98,783.96 881.09,783.90 C880.21,783.85 874.78,781.90 869.00,779.58 C840.53,768.12 799.46,755.91 763.00,748.04 C755.03,746.32 747.71,744.68 746.75,744.39 C745.11,743.90 745.00,740.26 745.00,686.43 L 745.00 629.00 L 942.15 629.00 L 941.51 638.25 C939.86,661.99 933.32,690.78 924.50,713.12 C916.99,732.12 903.05,756.71 889.45,774.92 ZM 372.00 504.04 L 372.00 619.00 L 174.82 619.00 L 175.46 610.25 C179.13,559.90 196.39,514.90 228.31,472.50 C231.63,468.10 234.45,464.35 234.59,464.17 C234.72,463.98 240.39,465.95 247.17,468.53 C286.57,483.55 323.75,494.18 369.75,503.58 ZM 941.54 610.25 L 942.18 619.00 L 745.00 619.00 L 745.00 504.04 L 747.25 503.58 C793.51,494.13 828.95,484.04 867.83,469.28 C875.72,466.29 882.28,463.99 882.42,464.17 C882.55,464.35 885.37,468.10 888.69,472.50 C920.61,514.90 937.88,559.90 941.54,610.25 ZM 372.00 363.05 L 372.00 493.00 L 369.75 492.88 C365.16,492.64 323.71,482.66 305.50,477.41 C280.11,470.09 243.87,457.11 243.20,455.10 C242.71,453.63 266.54,429.83 278.03,420.33 C299.70,402.40 324.83,386.10 351.16,372.92 C360.04,368.47 368.37,364.43 369.66,363.94 ZM 759.67 490.45 C753.16,491.85 747.20,493.00 746.42,493.00 C745.21,493.00 745.00,483.49 745.00,428.02 L 745.00 363.05 L 747.34 363.94 C753.77,366.38 783.48,381.90 793.79,388.21 C811.20,398.85 829.98,412.58 844.55,425.31 C857.20,436.38 874.00,453.30 874.00,454.97 C874.00,456.14 862.42,460.81 843.07,467.43 C817.34,476.24 788.15,484.30 759.67,490.45 ZM 763.60 876.57 C754.30,881.21 746.32,885.00 745.85,885.00 C745.38,885.00 745.00,855.75 745.00,820.00 C745.00,776.61 745.34,755.00 746.02,755.00 C749.70,755.00 789.38,764.56 810.50,770.54 C837.46,778.17 874.00,791.40 874.00,793.53 C874.00,795.42 845.63,822.59 833.68,832.15 C812.03,849.48 790.36,863.21 763.60,876.57 ZM 372.00 820.00 C372.00,855.75 371.64,885.00 371.19,885.00 C370.75,885.00 362.31,880.98 352.44,876.06 C325.97,862.87 300.59,846.53 279.63,829.18 C268.38,819.87 243.00,795.10 243.00,793.43 C243.00,791.16 284.48,776.57 313.50,768.63 C333.61,763.13 367.93,755.00 371.07,755.00 C371.64,755.00 372.00,780.36 372.00,820.00 ZM 786.50 895.93 C777.70,898.14 764.32,901.26 756.76,902.86 L 743.01 905.77 L 743.63 901.63 C743.98,899.36 744.54,897.20 744.88,896.84 C745.22,896.47 751.12,893.58 758.00,890.41 C787.55,876.79 814.98,859.91 841.04,839.32 C845.69,835.64 857.55,824.62 867.39,814.84 L 885.28 797.05 L 893.39 800.59 C905.60,805.93 927.10,817.33 939.88,825.25 L 951.26 832.29 L 947.38 834.67 C940.82,838.68 912.31,852.47 896.47,859.30 C864.02,873.27 825.31,886.17 786.50,895.93 ZM 373.29 901.11 C373.61,903.50 373.79,905.52 373.69,905.59 C373.30,905.86 343.02,899.07 331.00,896.02 C290.49,885.74 254.47,873.79 221.00,859.52 C207.26,853.67 171.93,836.47 168.02,833.72 C165.94,832.27 166.25,831.98 177.18,825.21 C190.05,817.25 209.22,807.07 222.59,801.10 L 231.67 797.04 L 250.09 815.30 C283.68,848.61 318.42,872.17 365.10,893.31 C372.63,896.72 372.71,896.79 373.29,901.11 ZM 898.35 445.32 C891.67,448.44 885.82,450.95 885.35,450.89 C884.88,450.83 877.53,443.68 869.00,435.02 C846.40,412.04 825.89,395.88 797.67,378.80 C785.10,371.19 761.45,358.90 750.25,354.17 C745.01,351.95 745.00,351.93 745.00,347.40 C745.00,343.56 745.27,342.94 746.75,343.37 C747.71,343.64 752.33,344.62 757.00,345.53 C789.48,351.88 837.84,365.96 872.00,379.00 C906.07,392.01 952.18,414.28 949.80,416.58 C945.75,420.48 916.39,436.88 898.35,445.32 ZM 244.29 438.36 C237.57,445.31 231.72,450.97 231.29,450.93 C226.60,450.53 176.75,423.88 168.18,417.20 L 165.86 415.39 L 181.68 407.28 C214.59,390.43 244.62,378.19 285.00,365.17 C305.53,358.55 341.59,349.10 360.00,345.52 C364.67,344.61 369.29,343.64 370.25,343.37 C371.74,342.94 372.00,343.56 372.00,347.46 C372.00,350.94 371.57,352.22 370.25,352.69 C369.29,353.04 361.75,356.54 353.50,360.47 C311.19,380.63 275.46,406.11 244.29,438.36 Z" fill="rgb(17,46,80)"/>
<path d="M 0.00 0.00 L 1117.00 0.00 L 911.25 0.08 C733.31,0.16 706.28,0.35 711.24,1.56 C719.69,3.61 724.74,6.55 731.53,13.39 C737.05,18.95 740.31,24.20 743.37,32.50 C744.16,34.62 744.63,78.84 744.99,183.96 L 745.50 332.43 L 748.50 333.21 C750.15,333.63 759.60,335.77 769.50,337.94 C874.16,360.95 967.66,403.96 1029.50,457.54 C1067.79,490.72 1094.44,527.98 1107.43,566.50 C1111.06,577.27 1114.85,593.11 1115.64,600.75 C1115.99,604.19 1116.44,607.00 1116.64,607.00 C1116.84,607.00 1117.00,470.42 1117.00,303.50 L 1117.00 938.00 L 1116.92 790.25 L 1116.84 642.50 L 1114.51 654.50 C1106.26,697.02 1086.67,732.99 1051.95,769.36 C1000.87,822.86 920.10,867.74 822.50,896.86 C798.28,904.09 748.31,916.00 742.21,916.00 C740.58,916.00 737.45,918.23 732.64,922.82 C724.83,930.29 721.03,932.78 713.56,935.32 C709.05,936.86 696.39,937.00 559.00,937.00 C423.27,937.00 408.91,936.85 404.57,935.37 C396.66,932.67 390.84,928.92 384.28,922.29 C380.15,918.12 377.27,916.00 375.71,916.00 C373.25,916.00 363.31,913.97 344.00,909.51 C244.57,886.58 161.37,849.14 97.50,798.59 C84.62,788.40 56.50,760.28 46.64,747.76 C21.25,715.49 6.21,681.18 1.57,645.00 C0.40,635.87 0.21,654.24 0.11,786.25 L 0.00 938.00 ZM 412.80 925.92 C421.39,927.18 697.11,927.21 704.86,925.95 C708.36,925.38 713.35,923.84 715.95,922.52 C722.01,919.46 730.26,910.44 732.64,904.29 C734.44,899.65 734.51,885.67 734.76,470.00 C735.03,41.44 735.02,40.49 733.00,33.82 C731.89,30.14 729.51,25.19 727.71,22.82 C724.05,18.00 716.76,12.70 711.18,10.81 C706.49,9.22 428.60,8.38 414.88,9.91 C409.13,10.55 404.50,11.73 401.24,13.38 C394.35,16.87 386.76,25.46 384.66,32.14 C383.10,37.13 383.00,67.41 383.24,469.50 L 383.50 901.50 L 386.44 907.31 C391.44,917.17 401.48,924.26 412.80,925.92 ZM 0.00 0.00 L 0.15 306.25 C0.23,473.68 0.48,609.51 0.69,609.51 L 0.70 609.50 C5.04,576.83 12.38,554.48 27.06,529.29 C68.06,458.89 154.67,398.24 268.50,360.19 C298.78,350.07 322.53,343.54 354.50,336.54 C361.10,335.10 367.85,333.58 369.50,333.17 L 372.50 332.43 L 373.00 182.96 C373.48,38.13 373.56,33.36 375.43,29.00 C381.43,15.01 391.55,5.85 405.40,1.89 C411.26,0.21 403.29,0.14 205.75,0.07 ZM 967.73 822.86 C994.44,806.52 1016.30,789.62 1037.37,769.03 C1060.74,746.19 1076.15,725.63 1087.99,701.50 C1098.03,681.03 1104.69,657.71 1106.50,636.75 L 1107.17 629.00 L 952.21 629.00 L 951.55 638.25 C948.29,684.15 934.17,725.65 908.25,765.50 C904.68,771.00 899.51,778.36 896.78,781.85 C894.04,785.35 892.19,788.53 892.65,788.92 C893.12,789.32 897.78,791.57 903.00,793.94 C917.00,800.27 936.99,811.29 949.50,819.56 C955.55,823.56 960.60,826.87 960.73,826.92 C960.86,826.96 964.01,825.14 967.73,822.86 ZM 167.22 819.62 C180.22,811.12 196.56,802.09 212.93,794.36 C219.22,791.39 224.55,788.79 224.77,788.57 C224.99,788.35 222.95,785.32 220.24,781.83 C208.92,767.28 195.57,744.90 187.40,726.76 C175.27,699.82 167.64,669.06 165.45,638.25 L 164.79 629.00 L 9.84 629.00 L 10.49 635.75 C13.82,670.37 26.17,702.88 46.79,731.30 C57.76,746.43 61.15,750.33 77.41,766.58 C98.31,787.46 113.66,799.81 139.50,816.53 C146.10,820.80 152.40,824.88 153.50,825.59 C154.60,826.31 155.60,826.92 155.72,826.95 C155.84,826.98 161.01,823.68 167.22,819.62 ZM 1106.50 612.25 C1103.23,578.97 1093.39,551.86 1073.99,522.71 C1050.84,487.93 1017.76,457.17 972.92,428.71 C967.10,425.02 961.79,422.00 961.13,422.00 C960.46,422.00 956.67,424.18 952.70,426.84 C941.75,434.21 925.31,443.45 908.67,451.60 C900.42,455.64 893.22,459.09 892.69,459.27 C892.15,459.45 894.86,463.85 898.72,469.05 C920.03,497.78 936.84,533.09 944.88,566.00 C947.99,578.73 950.36,594.53 951.53,610.25 L 952.18 619.00 L 1107.16 619.00 ZM 165.47 610.25 C169.37,557.70 186.30,512.48 218.32,469.05 C222.16,463.85 224.89,459.46 224.40,459.30 C223.90,459.13 217.49,456.07 210.15,452.50 C193.64,444.46 179.49,436.59 166.70,428.33 C161.32,424.85 156.49,422.00 155.97,422.00 C154.80,422.00 144.25,428.44 132.50,436.33 C69.77,478.45 28.90,529.61 15.53,582.72 C13.08,592.48 11.66,600.94 10.51,612.75 L 9.90 619.00 L 164.82 619.00 ZM 246.08 780.17 C273.09,769.18 314.86,756.72 352.50,748.42 C361.30,746.48 369.29,744.66 370.25,744.38 C371.89,743.90 372.00,740.27 372.00,686.43 L 372.00 629.00 L 174.82 629.00 L 175.46 637.75 C178.57,680.50 191.34,719.02 214.73,756.23 C222.57,768.71 234.01,784.00 235.50,784.00 C236.14,784.00 240.91,782.28 246.08,780.17 ZM 889.45 774.92 C903.05,756.71 916.99,732.12 924.50,713.12 C933.32,690.78 939.86,661.99 941.51,638.25 L 942.15 629.00 L 745.00 629.00 L 745.00 686.43 C745.00,740.26 745.11,743.90 746.75,744.39 C747.71,744.68 755.03,746.32 763.00,748.04 C799.46,755.91 840.53,768.12 869.00,779.58 C874.78,781.90 880.21,783.85 881.09,783.90 C881.98,783.96 885.61,780.06 889.45,774.92 ZM 372.00 504.04 L 369.75 503.58 C323.75,494.18 286.57,483.55 247.17,468.53 C240.39,465.95 234.72,463.98 234.59,464.17 C234.45,464.35 231.63,468.10 228.31,472.50 C196.39,514.90 179.13,559.90 175.46,610.25 L 174.82 619.00 L 372.00 619.00 ZM 941.54 610.25 C937.88,559.90 920.61,514.90 888.69,472.50 C885.37,468.10 882.55,464.35 882.42,464.17 C882.28,463.99 875.72,466.29 867.83,469.28 C828.95,484.04 793.51,494.13 747.25,503.58 L 745.00 504.04 L 745.00 619.00 L 942.18 619.00 ZM 490.01 577.00 L 489.50 851.50 L 461.93 851.77 C446.77,851.91 434.06,851.72 433.68,851.35 C433.31,850.97 433.00,789.09 433.00,713.83 L 433.00 577.00 ZM 684.00 576.97 L 684.00 852.00 L 656.62 852.00 C634.79,852.00 629.02,851.73 628.12,850.64 C627.29,849.65 627.06,812.99 627.25,713.39 L 627.50 577.50 ZM 571.49 217.53 C567.27,218.34 561.28,218.96 558.16,218.92 C538.07,218.64 518.42,207.42 506.87,189.65 C484.21,154.77 503.52,106.92 544.46,96.52 C552.11,94.57 566.89,94.57 574.54,96.52 C589.40,100.29 602.63,109.78 611.07,122.71 C617.83,133.05 620.11,140.28 620.74,153.37 C621.38,166.60 620.22,172.57 614.79,184.00 C611.50,190.90 609.19,194.03 602.53,200.64 C592.92,210.16 583.64,215.21 571.49,217.53 ZM 372.00 363.05 L 369.66 363.94 C368.37,364.43 360.04,368.47 351.16,372.92 C324.83,386.10 299.70,402.40 278.03,420.33 C266.54,429.83 242.71,453.63 243.20,455.10 C243.87,457.11 280.11,470.09 305.50,477.41 C323.71,482.66 365.16,492.64 369.75,492.88 L 372.00 493.00 ZM 759.67 490.45 C788.15,484.30 817.34,476.24 843.07,467.43 C862.42,460.81 874.00,456.14 874.00,454.97 C874.00,453.30 857.20,436.38 844.55,425.31 C829.98,412.58 811.20,398.85 793.79,388.21 C783.48,381.90 753.77,366.38 747.34,363.94 L 745.00 363.05 L 745.00 428.02 C745.00,483.49 745.21,493.00 746.42,493.00 C747.20,493.00 753.16,491.85 759.67,490.45 ZM 763.60 876.57 C790.36,863.21 812.03,849.48 833.68,832.15 C845.63,822.59 874.00,795.42 874.00,793.53 C874.00,791.40 837.46,778.17 810.50,770.54 C789.38,764.56 749.70,755.00 746.02,755.00 C745.34,755.00 745.00,776.61 745.00,820.00 C745.00,855.75 745.38,885.00 745.85,885.00 C746.32,885.00 754.30,881.21 763.60,876.57 ZM 372.00 820.00 C372.00,780.36 371.64,755.00 371.07,755.00 C367.93,755.00 333.61,763.13 313.50,768.63 C284.48,776.57 243.00,791.16 243.00,793.43 C243.00,795.10 268.38,819.87 279.63,829.18 C300.59,846.53 325.97,862.87 352.44,876.06 C362.31,880.98 370.75,885.00 371.19,885.00 C371.64,885.00 372.00,855.75 372.00,820.00 ZM 544.10 204.43 C562.42,210.67 584.19,204.81 597.07,190.19 C606.34,179.65 611.20,163.24 609.04,149.74 C607.04,137.22 603.81,130.72 595.10,121.70 C585.13,111.36 574.68,106.98 560.07,107.02 C549.57,107.05 544.80,108.10 536.32,112.24 C516.23,122.03 504.87,146.73 510.51,168.37 C515.12,186.09 526.68,198.50 544.10,204.43 ZM 786.50 895.93 C825.31,886.17 864.02,873.27 896.47,859.30 C912.31,852.47 940.82,838.68 947.38,834.67 L 951.26 832.29 L 939.88 825.25 C927.10,817.33 905.60,805.93 893.39,800.59 L 885.28 797.05 L 867.39 814.84 C857.55,824.62 845.69,835.64 841.04,839.32 C814.98,859.91 787.55,876.79 758.00,890.41 C751.12,893.58 745.22,896.47 744.88,896.84 C744.54,897.20 743.98,899.36 743.63,901.63 L 743.01 905.77 L 756.76 902.86 C764.32,901.26 777.70,898.14 786.50,895.93 ZM 373.29 901.11 C372.71,896.79 372.63,896.72 365.10,893.31 C318.42,872.17 283.68,848.61 250.09,815.30 L 231.67 797.04 L 222.59 801.10 C209.22,807.07 190.05,817.25 177.18,825.21 C166.25,831.98 165.94,832.27 168.02,833.72 C171.93,836.47 207.26,853.67 221.00,859.52 C254.47,873.79 290.49,885.74 331.00,896.02 C343.02,899.07 373.30,905.86 373.69,905.59 C373.79,905.52 373.61,903.50 373.29,901.11 ZM 898.35 445.32 C916.39,436.88 945.75,420.48 949.80,416.58 C952.18,414.28 906.07,392.01 872.00,379.00 C837.84,365.96 789.48,351.88 757.00,345.53 C752.33,344.62 747.71,343.64 746.75,343.37 C745.27,342.94 745.00,343.56 745.00,347.40 C745.00,351.93 745.01,351.95 750.25,354.17 C761.45,358.90 785.10,371.19 797.67,378.80 C825.89,395.88 846.40,412.04 869.00,435.02 C877.53,443.68 884.88,450.83 885.35,450.89 C885.82,450.95 891.67,448.44 898.35,445.32 ZM 244.29 438.36 C275.46,406.11 311.19,380.63 353.50,360.47 C361.75,356.54 369.29,353.04 370.25,352.69 C371.57,352.22 372.00,350.94 372.00,347.46 C372.00,343.56 371.74,342.94 370.25,343.37 C369.29,343.64 364.67,344.61 360.00,345.52 C341.59,349.10 305.53,358.55 285.00,365.17 C244.62,378.19 214.59,390.43 181.68,407.28 L 165.86 415.39 L 168.18 417.20 C176.75,423.88 226.60,450.53 231.29,450.93 C231.72,450.97 237.57,445.31 244.29,438.36 ZM 577.27 527.24 C571.39,529.96 569.19,530.41 560.50,530.70 C552.42,530.97 549.47,530.66 545.16,529.06 C521.43,520.28 508.56,497.46 514.49,474.69 C521.97,445.99 553.90,431.69 580.37,445.19 C585.57,447.84 594.56,456.39 597.59,461.57 C605.88,475.70 606.21,493.65 598.46,507.90 C594.52,515.13 585.35,523.50 577.27,527.24 ZM 572.00 769.92 C564.67,771.60 553.06,771.21 548.50,769.13 C542.85,766.56 538.40,762.54 535.23,757.14 C532.87,753.12 532.50,751.43 532.51,744.50 C532.53,735.66 533.91,731.96 539.36,726.16 C544.14,721.08 549.48,718.81 558.85,717.86 C573.57,716.36 583.38,709.98 589.25,698.08 C592.27,691.94 592.52,675.40 589.67,670.16 C588.67,668.32 588.10,666.56 588.41,666.26 C589.36,665.30 597.01,671.19 601.65,676.46 C609.89,685.81 615.94,701.67 615.98,714.07 C616.06,734.71 602.46,756.42 583.86,765.35 C579.81,767.30 574.47,769.35 572.00,769.92 ZM 527.77 757.75 C529.59,761.15 529.74,762.00 528.56,762.00 C524.72,762.00 512.13,748.19 507.27,738.66 C502.36,729.00 500.67,714.47 503.00,701.89 C504.59,693.30 510.40,682.67 517.78,674.85 C526.27,665.85 538.28,659.63 550.46,657.94 C563.75,656.09 571.41,658.29 578.30,665.91 C583.39,671.55 585.20,676.31 585.20,684.09 C585.19,692.36 581.93,699.33 575.78,704.21 C569.85,708.92 566.80,710.04 557.19,711.03 C543.61,712.43 534.43,718.36 528.75,729.37 C525.90,734.88 525.58,736.40 525.54,744.50 C525.51,752.00 525.88,754.21 527.77,757.75 ZM 579.23 561.99 C562.09,568.22 544.17,566.45 527.16,556.85 C518.50,551.97 507.19,539.97 502.77,531.00 C498.76,522.85 495.72,511.56 496.20,506.61 C496.50,503.54 496.54,503.57 500.18,509.50 C504.17,515.99 514.14,526.42 520.38,530.63 C530.89,537.72 547.55,543.02 559.21,542.98 C581.52,542.91 605.59,529.09 617.55,509.50 L 621.21 503.50 L 620.73 510.00 C619.85,522.11 613.67,535.72 604.42,545.96 C599.07,551.87 588.45,558.64 579.23,561.99 ZM 615.78 634.25 L 615.50 645.50 L 559.42 645.76 C528.58,645.90 503.05,645.71 502.67,645.34 C502.30,644.97 502.00,639.79 502.00,633.83 L 502.00 623.00 L 616.07 623.00 ZM 615.78 794.25 L 615.50 805.50 L 559.42 805.76 C528.58,805.90 503.05,805.71 502.67,805.34 C502.30,804.97 502.00,799.79 502.00,793.83 L 502.00 783.00 L 616.07 783.00 ZM 570.23 425.78 C560.59,429.87 553.26,429.29 543.91,423.72 C537.31,419.78 532.57,413.09 531.00,405.48 C529.68,399.14 530.54,395.39 534.74,389.30 C536.28,387.06 537.66,383.27 538.11,380.07 C538.86,374.74 541.37,370.04 543.92,369.19 C544.88,368.87 545.04,369.56 544.53,371.88 C544.10,373.84 544.45,376.85 545.48,379.95 C547.20,385.11 546.78,387.28 543.55,389.95 C541.23,391.89 541.60,396.61 544.22,398.44 C551.66,403.65 554.93,395.49 550.94,381.67 C549.54,376.85 549.55,376.81 553.40,369.63 L 557.26 362.42 L 556.00 355.38 C554.88,349.10 554.93,347.95 556.50,344.64 C557.47,342.60 558.50,341.17 558.79,341.46 C559.08,341.75 559.37,344.58 559.43,347.74 C559.53,352.54 560.14,354.41 563.11,359.00 C569.48,368.82 570.33,374.00 567.00,382.76 C564.23,390.03 564.33,396.41 567.22,398.44 C570.16,400.50 571.59,400.41 574.00,398.00 C576.69,395.31 576.52,392.77 573.39,389.05 C571.27,386.53 570.91,385.34 571.47,382.73 C571.85,380.95 572.39,377.14 572.67,374.25 C572.95,371.36 573.58,369.00 574.07,369.00 C575.71,369.00 577.97,373.58 579.00,378.98 C579.56,381.93 581.45,386.58 583.20,389.32 C587.40,395.85 588.14,403.64 585.20,410.28 C582.40,416.62 575.85,423.39 570.23,425.78 ZM 587.08 834.45 C572.86,842.99 560.62,850.21 559.87,850.49 C558.59,850.97 508.23,821.51 505.04,818.42 C503.77,817.19 511.10,817.00 558.84,817.00 C594.17,817.00 613.90,817.35 613.52,817.97 C613.19,818.50 601.29,825.92 587.08,834.45 ZM 586.21 594.93 C572.30,603.27 560.38,610.29 559.71,610.53 C558.54,610.96 507.99,581.26 505.04,578.41 C503.77,577.19 511.22,577.00 559.00,577.00 C606.21,577.00 614.21,577.20 612.96,578.38 C612.16,579.14 600.12,586.59 586.21,594.93 ZM 554.50 754.83 C561.12,758.49 570.01,752.45 570.00,744.30 C569.99,740.45 566.57,735.17 563.25,733.89 C559.74,732.55 554.32,733.40 551.77,735.70 C544.89,741.93 546.07,750.17 554.50,754.83 ZM 552.23 692.75 C563.70,700.71 576.39,685.30 566.50,675.41 C563.34,672.25 555.52,672.01 551.77,674.97 C545.71,679.73 545.94,688.38 552.23,692.75 Z" fill="rgb(217,179,85)"/>
<path d="M 1115.75 601.00 C1115.75,601.05 1115.76,601.07 1115.76,601.07 C1116.17,601.07 1116.62,468.78 1116.75,304.08 C1116.89,137.21 1116.85,0.52 1116.67,0.33 C1116.48,0.15 1024.57,0.11 912.41,0.25 C718.29,0.49 708.76,0.58 714.02,2.21 C715.88,2.79 717.69,3.50 719.44,4.33 C716.99,3.18 714.35,2.31 711.24,1.56 C706.28,0.35 733.31,0.16 911.25,0.08 L 1117.00 0.00 L 1117.00 303.50 C1117.00,470.42 1116.84,607.00 1116.64,607.00 C1116.44,607.00 1115.99,604.19 1115.64,600.75 C1115.22,596.69 1113.95,590.32 1112.31,583.62 C1113.95,590.30 1115.25,596.73 1115.75,601.00 ZM 0.69 609.51 C0.68,609.51 0.66,608.50 0.64,606.54 C1.04,605.29 2.05,600.09 3.02,594.12 C7.67,565.60 19.86,537.73 38.65,511.33 C34.46,517.24 30.59,523.23 27.06,529.29 C12.38,554.48 5.04,576.83 0.70,609.50 ZM 12.25 687.84 C8.66,678.46 5.88,669.07 3.98,659.84 C3.23,656.15 2.56,652.27 2.23,649.69 C4.22,662.65 7.56,675.37 12.25,687.84 ZM 721.54 5.41 C727.33,8.60 732.37,13.23 736.47,19.10 C735.03,17.14 733.41,15.28 731.53,13.39 C727.97,9.80 724.89,7.29 721.54,5.41 ZM 343.23 0.19 C371.43,0.26 387.62,0.38 396.57,0.59 C386.18,0.42 368.39,0.29 343.23,0.19 ZM 404.95 2.02 C402.49,2.75 400.15,3.64 397.93,4.70 C400.82,3.18 403.46,2.14 404.95,2.02 ZM 1.44 644.09 C1.31,643.80 1.16,643.60 1.00,643.50 C0.99,643.50 0.99,643.50 0.98,643.50 C1.11,642.65 1.26,642.97 1.44,644.09 ZM 377.60 24.48 C376.83,25.92 376.10,27.43 375.43,29.00 C374.97,30.08 374.61,31.19 374.34,34.45 C374.61,31.20 374.96,30.07 375.41,29.00 C376.06,27.46 376.80,25.95 377.60,24.48 Z" fill="rgb(234,214,161)"/>
<path d="M -0.00 790.44 C-0.00,692.32 0.34,643.09 1.00,643.50 C1.55,643.84 2.00,645.48 2.00,647.15 C2.00,648.82 2.89,654.53 3.98,659.84 C10.04,689.31 25.13,720.42 46.64,747.76 C56.50,760.28 84.62,788.40 97.50,798.59 C161.37,849.14 244.57,886.58 344.00,909.51 C363.31,913.97 373.25,916.00 375.71,916.00 C377.27,916.00 380.15,918.12 384.28,922.29 C390.84,928.92 396.66,932.67 404.57,935.37 C408.91,936.85 423.27,937.00 559.00,937.00 C696.39,937.00 709.05,936.86 713.56,935.32 C721.03,932.78 724.83,930.29 732.64,922.82 C737.45,918.23 740.58,916.00 742.21,916.00 C748.31,916.00 798.28,904.09 822.50,896.86 C920.10,867.74 1000.87,822.86 1051.95,769.36 C1086.67,732.99 1106.26,697.02 1114.51,654.50 L 1116.84 642.50 L 1116.92 790.25 L 1117.00 938.00 L 558.50 938.00 L 0.00 938.00 L -0.00 790.44 ZM 412.80 925.92 C401.48,924.26 391.44,917.17 386.44,907.31 L 383.50 901.50 L 383.24 469.50 C383.00,67.41 383.10,37.13 384.66,32.14 C386.76,25.46 394.35,16.87 401.24,13.38 C404.50,11.73 409.13,10.55 414.88,9.91 C428.60,8.38 706.49,9.22 711.18,10.81 C716.76,12.70 724.05,18.00 727.71,22.82 C729.51,25.19 731.89,30.14 733.00,33.82 C735.02,40.49 735.03,41.44 734.76,470.00 C734.51,885.67 734.44,899.65 732.64,904.29 C730.26,910.44 722.01,919.46 715.95,922.52 C713.35,923.84 708.36,925.38 704.86,925.95 C697.11,927.21 421.39,927.18 412.80,925.92 ZM 489.75 714.25 L 490.01 577.00 L 461.50 577.00 L 433.00 577.00 L 433.00 713.83 C433.00,789.09 433.31,850.97 433.68,851.35 C434.06,851.72 446.77,851.91 461.93,851.77 L 489.50 851.50 L 489.75 714.25 ZM 684.00 714.48 L 684.00 576.97 L 655.75 577.23 L 627.50 577.50 L 627.25 713.39 C627.06,812.99 627.29,849.65 628.12,850.64 C629.02,851.73 634.79,852.00 656.62,852.00 L 684.00 852.00 L 684.00 714.48 ZM 587.08 834.45 C601.29,825.92 613.19,818.50 613.52,817.97 C613.90,817.35 594.17,817.00 558.84,817.00 C511.10,817.00 503.77,817.19 505.04,818.42 C508.23,821.51 558.59,850.97 559.87,850.49 C560.62,850.21 572.86,842.99 587.08,834.45 ZM 615.78 794.25 L 616.07 783.00 L 559.03 783.00 L 502.00 783.00 L 502.00 793.83 C502.00,799.79 502.30,804.97 502.67,805.34 C503.05,805.71 528.58,805.90 559.42,805.76 L 615.50 805.50 L 615.78 794.25 ZM 572.00 769.92 C574.47,769.35 579.81,767.30 583.86,765.35 C602.46,756.42 616.06,734.71 615.98,714.07 C615.94,701.67 609.89,685.81 601.65,676.46 C597.01,671.19 589.36,665.30 588.41,666.26 C588.10,666.56 588.67,668.32 589.67,670.16 C592.52,675.40 592.27,691.94 589.25,698.08 C583.38,709.98 573.57,716.36 558.85,717.86 C549.48,718.81 544.14,721.08 539.36,726.16 C533.91,731.96 532.53,735.66 532.51,744.50 C532.50,751.43 532.87,753.12 535.23,757.14 C538.40,762.54 542.85,766.56 548.50,769.13 C553.06,771.21 564.67,771.60 572.00,769.92 ZM 527.77 757.75 C525.88,754.21 525.51,752.00 525.54,744.50 C525.58,736.40 525.90,734.88 528.75,729.37 C534.43,718.36 543.61,712.43 557.19,711.03 C566.80,710.04 569.85,708.92 575.78,704.21 C581.93,699.33 585.19,692.36 585.20,684.09 C585.20,676.31 583.39,671.55 578.30,665.91 C571.41,658.29 563.75,656.09 550.46,657.94 C538.28,659.63 526.27,665.85 517.78,674.85 C510.40,682.67 504.59,693.30 503.00,701.89 C500.67,714.47 502.36,729.00 507.27,738.66 C512.13,748.19 524.72,762.00 528.56,762.00 C529.74,762.00 529.59,761.15 527.77,757.75 ZM 615.78 634.25 L 616.07 623.00 L 559.03 623.00 L 502.00 623.00 L 502.00 633.83 C502.00,639.79 502.30,644.97 502.67,645.34 C503.05,645.71 528.58,645.90 559.42,645.76 L 615.50 645.50 L 615.78 634.25 ZM 586.21 594.93 C600.12,586.59 612.16,579.14 612.96,578.38 C614.21,577.20 606.21,577.00 559.00,577.00 C511.22,577.00 503.77,577.19 505.04,578.41 C507.99,581.26 558.54,610.96 559.71,610.53 C560.38,610.29 572.30,603.27 586.21,594.93 ZM 579.23 561.99 C588.45,558.64 599.07,551.87 604.42,545.96 C613.67,535.72 619.85,522.11 620.73,510.00 L 621.21 503.50 L 617.55 509.50 C605.59,529.09 581.52,542.91 559.21,542.98 C547.55,543.02 530.89,537.72 520.38,530.63 C514.14,526.42 504.17,515.99 500.18,509.50 C496.54,503.57 496.50,503.54 496.20,506.61 C495.72,511.56 498.76,522.85 502.77,531.00 C507.19,539.97 518.50,551.97 527.16,556.85 C544.17,566.45 562.09,568.22 579.23,561.99 ZM 577.27 527.24 C585.35,523.50 594.52,515.13 598.46,507.90 C606.21,493.65 605.88,475.70 597.59,461.57 C594.56,456.39 585.57,447.84 580.37,445.19 C553.90,431.69 521.97,445.99 514.49,474.69 C508.56,497.46 521.43,520.28 545.16,529.06 C549.47,530.66 552.42,530.97 560.50,530.70 C569.19,530.41 571.39,529.96 577.27,527.24 ZM 570.23 425.78 C575.85,423.39 582.40,416.62 585.20,410.28 C588.14,403.64 587.40,395.85 583.20,389.32 C581.45,386.58 579.56,381.93 579.00,378.98 C577.97,373.58 575.71,369.00 574.07,369.00 C573.58,369.00 572.95,371.36 572.67,374.25 C572.39,377.14 571.85,380.95 571.47,382.73 C570.91,385.34 571.27,386.53 573.39,389.05 C576.52,392.77 576.69,395.31 574.00,398.00 C571.59,400.41 570.16,400.50 567.22,398.44 C564.33,396.41 564.23,390.03 567.00,382.76 C570.33,374.00 569.48,368.82 563.11,359.00 C560.14,354.41 559.53,352.54 559.43,347.74 C559.37,344.58 559.08,341.75 558.79,341.46 C558.50,341.17 557.47,342.60 556.50,344.64 C554.93,347.95 554.88,349.10 556.00,355.38 L 557.26 362.42 L 553.40 369.63 C549.55,376.81 549.54,376.85 550.94,381.67 C554.93,395.49 551.66,403.65 544.22,398.44 C541.60,396.61 541.23,391.89 543.55,389.95 C546.78,387.28 547.20,385.11 545.48,379.95 C544.45,376.85 544.10,373.84 544.53,371.88 C545.04,369.56 544.88,368.87 543.92,369.19 C541.37,370.04 538.86,374.74 538.11,380.07 C537.66,383.27 536.28,387.06 534.74,389.30 C530.54,395.39 529.68,399.14 531.00,405.48 C532.57,413.09 537.31,419.78 543.91,423.72 C553.26,429.29 560.59,429.87 570.23,425.78 ZM 571.49 217.53 C583.64,215.21 592.92,210.16 602.53,200.64 C609.19,194.03 611.50,190.90 614.79,184.00 C620.22,172.57 621.38,166.60 620.74,153.37 C620.11,140.28 617.83,133.05 611.07,122.71 C602.63,109.78 589.40,100.29 574.54,96.52 C566.89,94.57 552.11,94.57 544.46,96.52 C503.52,106.92 484.21,154.77 506.87,189.65 C518.42,207.42 538.07,218.64 558.16,218.92 C561.28,218.96 567.27,218.34 571.49,217.53 ZM 0.00 303.67 L 0.00 0.00 L 204.06 0.00 C339.84,0.00 407.91,0.33 407.50,1.00 C407.16,1.55 406.12,2.00 405.19,2.01 C402.24,2.03 393.68,6.57 388.56,10.82 C383.21,15.27 378.44,21.87 375.41,29.00 C373.57,33.34 373.48,38.65 373.00,182.96 L 372.50 332.43 L 369.50 333.17 C367.85,333.58 361.10,335.10 354.50,336.54 C322.53,343.54 298.78,350.07 268.50,360.19 C118.87,410.20 18.61,498.55 3.02,594.12 C1.93,600.82 0.80,606.53 0.52,606.82 C0.23,607.10 0.00,470.68 0.00,303.67 ZM 1115.75 601.00 C1114.81,592.92 1110.99,577.07 1107.43,566.50 C1094.44,527.98 1067.79,490.72 1029.50,457.54 C967.66,403.96 874.16,360.95 769.50,337.94 C759.60,335.77 750.15,333.63 748.50,333.21 L 745.50 332.43 L 744.99 183.96 C744.63,78.84 744.16,34.62 743.37,32.50 C737.64,17.00 727.30,6.33 714.02,2.21 C708.76,0.58 718.29,0.49 912.41,0.25 C1024.57,0.11 1116.48,0.15 1116.67,0.33 C1116.85,0.52 1116.89,137.21 1116.75,304.08 C1116.61,470.96 1116.16,604.58 1115.75,601.00 ZM 554.50 754.83 C546.07,750.17 544.89,741.93 551.77,735.70 C554.32,733.40 559.74,732.55 563.25,733.89 C566.57,735.17 569.99,740.45 570.00,744.30 C570.01,752.45 561.12,758.49 554.50,754.83 ZM 552.23 692.75 C545.94,688.38 545.71,679.73 551.77,674.97 C555.52,672.01 563.34,672.25 566.50,675.41 C576.39,685.30 563.70,700.71 552.23,692.75 ZM 544.10 204.43 C526.68,198.50 515.12,186.09 510.51,168.37 C504.87,146.73 516.23,122.03 536.32,112.24 C544.80,108.10 549.57,107.05 560.07,107.02 C574.68,106.98 585.13,111.36 595.10,121.70 C603.81,130.72 607.04,137.22 609.04,149.74 C611.20,163.24 606.34,179.65 597.07,190.19 C584.19,204.81 562.42,210.67 544.10,204.43 Z" fill="rgb(254,254,254)"/>
</g>
</svg>